Coordinates
version=1
nRows=32
nColumns=12
inDegrees=yes

Units are S.I. units (second, meters, Newtons, ...)
Angles are in degrees

endheader
time	SC_y	SC_z	SC_x	AC_y	AC_z	AC_x	GH_y	GH_z	GH_yy	EL_x	PS_y
       0.0              -37.52          30.03          61.84          63.42         -1.648          12.53         -33.69           9.42         -23.49           58.9          28.79
   0.03796              -37.52          30.03          61.83          63.41         -1.648          12.52         -33.68          9.421          -23.5           58.9           28.8
   0.07593              -37.52          30.03          61.83          63.41         -1.648          12.52         -33.66          9.422         -23.51          58.91          28.81
    0.1139              -37.53          30.03          61.82          63.41         -1.648          12.51         -33.64          9.423         -23.52          58.91          28.83
    0.1519              -37.53          30.03          61.82          63.41         -1.648          12.51         -33.62          9.424         -23.54          58.92          28.84
    0.1898              -37.53          30.03          61.81           63.4         -1.648           12.5          -33.6          9.426         -23.55          58.92          28.86
    0.2278              -37.54          30.04           61.8           63.4         -1.648           12.5         -33.58          9.427         -23.56          58.93          28.88
    0.2658              -37.54          30.04          61.79           63.4         -1.648          12.49         -33.56          9.429         -23.58          58.94          28.89
    0.3037              -37.55          30.04          61.79           63.4         -1.648          12.48         -33.53           9.43          -23.6          58.94          28.91
    0.3417              -37.55          30.04          61.78          63.39         -1.648          12.48         -33.51          9.432         -23.61          58.95          28.93
    0.3796              -37.56          30.04          61.77          63.39         -1.648          12.47         -33.48          9.434         -23.63          58.96          28.96
    0.4176              -37.56          30.04          61.76          63.39         -1.648          12.46         -33.45          9.436         -23.65          58.97          28.98
    0.4556              -37.57          30.05          61.75          63.38         -1.648          12.45         -33.41          9.438         -23.68          58.98          29.01
    0.4935              -37.57          30.05          61.73          63.38         -1.648          12.44         -33.38          9.441          -23.7          58.99          29.03
    0.5315              -37.58          30.05          61.72          63.37         -1.648          12.43         -33.34          9.443         -23.72           59.0          29.07
    0.5695              -37.59          30.05          61.71          63.37         -1.648          12.42          -33.3          9.446         -23.75          59.01           29.1
    0.6074               -37.6          30.06          61.69          63.36         -1.648          12.41         -33.25          9.449         -23.78          59.03          29.13
    0.6454               -37.6          30.06          61.68          63.36         -1.648          12.39          -33.2          9.453         -23.82          59.04          29.17
    0.6834              -37.61          30.06          61.66          63.35         -1.648          12.38         -33.15          9.456         -23.85          59.06          29.22
    0.7213              -37.62          30.07          61.64          63.34         -1.648          12.36         -33.09           9.46         -23.89          59.07          29.26
    0.7593              -37.64          30.07          61.62          63.33         -1.648          12.34         -33.02          9.465         -23.93          59.09          29.31
    0.7973              -37.65          30.08          61.59          63.32         -1.648          12.32         -32.95           9.47         -23.98          59.11          29.37
    0.8352              -37.66          30.08          61.57          63.31         -1.648           12.3         -32.87          9.475         -24.03          59.13          29.43
    0.8732              -37.68          30.09          61.54           63.3         -1.648          12.28         -32.78          9.481         -24.09          59.16           29.5
    0.9111               -37.7          30.09           61.5          63.29         -1.648          12.25         -32.69          9.488         -24.16          59.19          29.58
    0.9491              -37.72           30.1          61.47          63.28         -1.648          12.22         -32.58          9.495         -24.23          59.22          29.66
    0.9871              -37.74          30.11          61.43          63.26         -1.648          12.19         -32.46          9.503         -24.31          59.25          29.76
     1.025              -37.76          30.12          61.38          63.25         -1.648          12.15         -32.32          9.513          -24.4          59.29          29.87
     1.063              -37.79          30.13          61.33          63.23         -1.648          12.11         -32.16          9.523          -24.5          59.34          29.99
     1.101              -37.82          30.14          61.27          63.21         -1.648          12.06         -31.99          9.535         -24.62          59.39          30.13
     1.139              -37.85          30.15          61.21          63.18         -1.648           12.0         -31.79          9.549         -24.75          59.45          30.28
     1.177               -37.9          30.17          61.13          63.15         -1.648          11.94         -31.55          9.564         -24.91          59.51          30.46
